<?xml version="1.0" encoding="utf-8"?>
<!-- Generator: Adobe Illustrator 16.0.0, SVG Export Plug-In . SVG Version: 6.00 Build 0)  -->
<!DOCTYPE svg PUBLIC "-//W3C//DTD SVG 1.1//EN" "http://www.w3.org/Graphics/SVG/1.1/DTD/svg11.dtd">
<svg version="1.1" id="Layer_1" xmlns="http://www.w3.org/2000/svg" xmlns:xlink="http://www.w3.org/1999/xlink" x="0px" y="0px"
	 width="520px" height="480px" viewBox="0 0 520 480" enable-background="new 0 0 520 480" xml:space="preserve">
<g>
	<path fill-rule="evenodd" clip-rule="evenodd" fill="#DCD7D2" d="M497.539,210.297c1.105,0,2,0.896,2,2v15c0,1.105-0.895,2-2,2
		c-1.104,0-2-0.895-2-2v-15C495.539,211.194,496.436,210.297,497.539,210.297z"/>
	<path fill-rule="evenodd" clip-rule="evenodd" fill="#E8E3DD" d="M283.235,347.297h75.618l22.686,61H260.55L283.235,347.297z"/>
	<path fill-rule="evenodd" clip-rule="evenodd" fill="#F3F0ED" d="M241.04,406.297h159.999c1.381,0,2.5,1.119,2.5,2.5
		s-1.119,2.5-2.5,2.5H241.04c-1.381,0-2.5-1.119-2.5-2.5S239.659,406.297,241.04,406.297z"/>
	<g>
		<defs>
			<path id="SVGID_1_" d="M258.54,357.297h120.999v22H258.54V357.297z"/>
		</defs>
		<clipPath id="SVGID_2_">
			<use xlink:href="#SVGID_1_"  overflow="visible"/>
		</clipPath>
		<path clip-path="url(#SVGID_2_)" fill-rule="evenodd" clip-rule="evenodd" fill="#DCD7D2" d="M283.235,347.297h75.618l22.686,61
			H260.55L283.235,347.297z"/>
	</g>
	<path fill-rule="evenodd" clip-rule="evenodd" fill="#F3F0ED" d="M136.54,60.298h369.999c5.523,0,10,4.477,10,10v283
		c0,5.523-4.477,10-10,10H136.54c-5.523,0-10-4.477-10-10v-283C126.54,64.775,131.017,60.298,136.54,60.298z"/>
	<path fill-rule="evenodd" clip-rule="evenodd" fill="#323D52" d="M136.54,60.298h369.999c5.523,0,10,4.477,10,10v251H126.54v-251
		C126.54,64.775,131.017,60.298,136.54,60.298z"/>
	<path fill-rule="evenodd" clip-rule="evenodd" fill="#DCD7D2" d="M322.04,333.297c4.694,0,8.5,3.807,8.5,8.5
		c0,4.695-3.806,8.5-8.5,8.5s-8.5-3.805-8.5-8.5C313.54,337.104,317.346,333.297,322.04,333.297z"/>
	<path fill-rule="evenodd" clip-rule="evenodd" fill="#FFFFFF" d="M142.54,76.297h356.999v228H142.54V76.297z"/>
	<path fill-rule="evenodd" clip-rule="evenodd" fill="#0A70C5" d="M142.54,76.297h356.999v15H142.54V76.297z"/>
	<path fill-rule="evenodd" clip-rule="evenodd" fill="#CFDEF5" d="M150.392,81.298c1.575,0,2.852,1.343,2.852,3
		c0,1.657-1.277,3-2.852,3c-1.575,0-2.852-1.343-2.852-3C147.54,82.641,148.817,81.298,150.392,81.298z"/>
	<path fill-rule="evenodd" clip-rule="evenodd" fill="#CFDEF5" d="M162.54,81.298c1.575,0,2.852,1.343,2.852,3
		c0,1.657-1.276,3-2.852,3s-2.852-1.343-2.852-3C159.688,82.641,160.965,81.298,162.54,81.298z"/>
	<path fill-rule="evenodd" clip-rule="evenodd" fill="#CFDEF5" d="M174.688,81.298c1.575,0,2.852,1.343,2.852,3
		c0,1.657-1.277,3-2.852,3c-1.575,0-2.852-1.343-2.852-3C171.836,82.641,173.113,81.298,174.688,81.298z"/>
	<path fill-rule="evenodd" clip-rule="evenodd" fill="#549BD7" d="M169.541,202.026l16.938,14.463l18.032-2.169l18.032-21.695
		l16.939-13.74l18.032,21.695l17.484-3.616l18.033-22.418l17.484,13.74l18.033-19.525l18.031,6.508l21.857-20.972l0.092,125h-199
		L169.541,202.026z"/>
	<path fill-rule="evenodd" clip-rule="evenodd" fill="#0A70C5" d="M169.53,229.297l17.206,5.994l17.725-0.723l17.741-11.57
		l17.725-7.232l17.742,9.401l17.724,2.17l17.74-15.909l17.725,4.338l17.742-7.955l17.725-0.723l22.205-16.791v89h-199V229.297z"/>
	<path fill-rule="evenodd" clip-rule="evenodd" fill="#DCD7D2" d="M274.529,109.297h94v7.308h-94V109.297z"/>
	<path fill-rule="evenodd" clip-rule="evenodd" fill="#F3F0ED" d="M306.529,120.99h62v7.308h-62V120.99z"/>
	<path fill-rule="evenodd" clip-rule="evenodd" fill="#0A70C5" d="M473.873,277.308h-19.764v-92.315h19.764V277.308z"/>
	<path fill-rule="evenodd" clip-rule="evenodd" fill="#549BD7" d="M446.234,277.308h-19.766v-68.232h19.766V277.308z"/>
	<path fill-rule="evenodd" clip-rule="evenodd" fill="#9DC6E8" d="M416.324,277.308h-19.764v-46.157h19.764V277.308z"/>
	<path fill-rule="evenodd" clip-rule="evenodd" fill="#DCD7D2" d="M527.539,173.297c1.105,0,2,0.896,2,2s-0.895,2-2,2s-2-0.896-2-2
		S526.434,173.297,527.539,173.297z"/>
	<path fill-rule="evenodd" clip-rule="evenodd" fill="#DCD7D2" d="M545.539,165.297c1.105,0,2,0.896,2,2c0,1.105-0.895,2-2,2
		c-1.104,0-2-0.895-2-2C543.539,166.193,544.436,165.297,545.539,165.297z"/>
	<g>
		<ellipse fill="#FFFFFF" cx="172.703" cy="211.815" rx="75.587" ry="77.673"/>
		<g>
			<defs>
				<ellipse id="SVGID_3_" cx="172.703" cy="211.815" rx="75.587" ry="77.673"/>
			</defs>
			<clipPath id="SVGID_4_">
				<use xlink:href="#SVGID_3_"  overflow="visible"/>
			</clipPath>
			<polygon clip-path="url(#SVGID_4_)" fill-rule="evenodd" clip-rule="evenodd" fill="#0A70C5" points="98.203,249.214 
				171.095,206.167 221.072,232.678 273.967,211.321 291.943,266.878 258.6,316.01 182.379,323.83 89.598,266.878 			"/>
		</g>
		
			<rect x="96.466" y="261.148" transform="matrix(-0.707 -0.7072 0.7072 -0.707 -20.7413 554.2034)" fill="#C7CFE2" width="15.942" height="40.5"/>
		<path fill="#C7CFE2" d="M173.837,128.287c-46.233,0-83.715,37.48-83.715,83.716c0,46.235,37.482,83.714,83.715,83.714
			c46.232,0,83.712-37.479,83.712-83.714C257.549,165.767,220.069,128.287,173.837,128.287z M173.837,282.5
			c-38.934,0-70.498-31.563-70.498-70.498c0-38.935,31.563-70.496,70.498-70.496c38.933,0,70.498,31.562,70.498,70.496
			C244.334,250.937,212.77,282.5,173.837,282.5z"/>
		<path fill="#50667E" d="M13.93,381.26l-9.348-9.346c-3.441-3.441-3.442-9.021,0-12.465l74.369-74.369
			c3.44-3.44,9.019-3.44,12.462,0l9.348,9.346c3.441,3.441,3.441,9.023,0,12.463l-74.369,74.369
			C22.951,384.699,17.371,384.699,13.93,381.26z"/>
		<path fill="#323D52" d="M87.762,293.895c3.442-3.445,9.019-3.445,12.46-0.004l0.547,0.545c0,0-0.006-0.006-0.009-0.01
			l-9.348-9.346c-3.443-3.44-9.021-3.44-12.462,0L4.582,359.449c-3.442,3.443-3.442,9.021,0,12.465l8.806,8.803
			c-3.435-3.441-3.433-9.018,0.006-12.455"/>
		<path fill="#C7CFE2" d="M95.329,312.318l5.432-5.43c3.441-3.439,3.44-9.021-0.003-12.463l-9.345-9.346
			c-3.443-3.44-9.021-3.44-12.462,0l-5.431,5.43L95.329,312.318z"/>
		<path fill="#AFB9D2" d="M82.333,299.322l5.428-5.428c3.443-3.445,9.02-3.445,12.461-0.004l0.545,0.545
			c-0.003-0.002-0.004-0.006-0.01-0.01l-9.345-9.346c-3.443-3.44-9.021-3.44-12.462,0l-5.431,5.43L82.333,299.322z"/>
		<ellipse fill="none" cx="172.703" cy="211.815" rx="75.587" ry="77.673"/>
		<g>
			<path fill="#8AAFE6" d="M147.874,180.481h-6.103v4.868c0.921-0.516,1.729-0.672,2.648-0.672c2.535,0,4.24,1.75,4.24,4.846
				c0,3.095-2.042,5.137-5.227,5.137c-1.861,0-3.297-0.695-4.486-1.84l1.166-1.145c0.942,0.965,1.997,1.437,3.32,1.437
				c2.041,0,3.252-1.256,3.252-3.657c0-2.468-1.233-3.298-2.804-3.298c-0.897,0-1.503,0.202-2.399,0.516h-1.526v-7.717h8.189
				L147.874,180.481z"/>
			<path fill="#8AAFE6" d="M159.228,192.506c0,0.561-0.113,1.077-0.427,1.772l-1.817,4.15h-1.705l1.055-4.419
				c-0.426-0.314-0.718-0.897-0.718-1.48c0-1.01,0.785-1.817,1.795-1.817C158.442,190.711,159.228,191.519,159.228,192.506z"/>
			<path fill="#8AAFE6" d="M172.824,186.135c2.02,0.831,3.32,2.244,3.32,4.127c0,2.535-2.064,4.397-5.317,4.397
				c-3.32,0-5.227-1.907-5.227-4.353c0-1.884,1.234-3.163,3.118-4.038c-1.659-0.785-2.468-1.794-2.468-3.522
				c0-2.826,2.58-4.038,4.622-4.038c2.243,0,4.62,1.189,4.62,3.926C175.493,184.139,174.529,185.193,172.824,186.135z
				 M169.998,186.808c-1.257,0.583-2.4,1.57-2.4,3.499c0,1.75,1.099,2.827,3.23,2.827c2.154,0,3.32-1.211,3.32-2.827
				C174.147,188.221,172.443,187.661,169.998,186.808z M171.5,185.664c1.437-0.83,2.153-1.547,2.153-2.938
				c0-1.547-1.009-2.535-2.781-2.535c-1.749,0-2.781,0.942-2.781,2.58C168.091,184.542,169.391,184.968,171.5,185.664z"/>
			<path fill="#8AAFE6" d="M189.45,190.667h-1.997v3.746h-1.817v-3.746h-6.416v-1.392l4.532-10.565l1.57,0.673l-4.106,9.758h4.443
				l0.156-4.374h1.638v4.374h1.997V190.667z"/>
			<path fill="#8AAFE6" d="M194.476,194.099l6.013-13.573h-7.247v-1.57h9.152v1.458l-6.17,14.2L194.476,194.099z"/>
		</g>
	</g>
	<path fill-rule="evenodd" clip-rule="evenodd" fill="#DCD7D2" d="M398.457,110.068h76.416v7.308h-76.416V110.068z"/>
	<path fill-rule="evenodd" clip-rule="evenodd" fill="#F3F0ED" d="M424.457,122.76h50.402v7.308h-50.402V122.76z"/>
</g>
</svg>
